<svg width="55" height="55" viewBox="0 0 55 55" fill="none" xmlns="http://www.w3.org/2000/svg">
<path opacity="0.1" fill-rule="evenodd" clip-rule="evenodd" d="M27.25 53.75C41.8855 53.75 53.75 41.8855 53.75 27.25C53.75 12.6145 41.8855 0.75 27.25 0.75C12.6145 0.75 0.75 12.6145 0.75 27.25C0.75 41.8855 12.6145 53.75 27.25 53.75Z" stroke="#F7F9F2" stroke-width="1.5"/>
<path d="M29.6618 20.4663H32.0973C32.3214 20.4663 32.5032 20.2949 32.5032 20.0838V17.7888C32.5032 17.5776 32.3214 17.4062 32.0973 17.4062H29.6618C27.2003 17.4062 25.1966 19.2935 25.1966 21.6138V24.2913H22.3551C22.1311 24.2913 21.9492 24.4627 21.9492 24.6739V26.9689C21.9492 27.18 22.1311 27.3514 22.3551 27.3514H25.1966V35.384C25.1966 35.5951 25.3785 35.7665 25.6025 35.7665H28.0381C28.2622 35.7665 28.444 35.5951 28.444 35.384V27.3514H31.2855C31.46 27.3514 31.6151 27.2458 31.6711 27.0898L32.4829 24.7947C32.5244 24.6784 32.5032 24.5499 32.4269 24.4497C32.3498 24.3503 32.228 24.2913 32.0973 24.2913H28.444V21.6138C28.444 20.9811 28.9904 20.4663 29.6618 20.4663Z" fill="#F7F9F2"/>
</svg>
