<svg width="55" height="55" viewBox="0 0 55 55" fill="none" xmlns="http://www.w3.org/2000/svg">
<path opacity="0.1" fill-rule="evenodd" clip-rule="evenodd" d="M27.25 53.75C41.8855 53.75 53.75 41.8855 53.75 27.25C53.75 12.6145 41.8855 0.75 27.25 0.75C12.6145 0.75 0.75 12.6145 0.75 27.25C0.75 41.8855 12.6145 53.75 27.25 53.75Z" stroke="#F7F9F2" stroke-width="1.5"/>
<path d="M27.25 18.75C30.6454 18.75 32.3436 18.7505 33.5664 19.5596C34.112 19.9207 34.5793 20.388 34.9404 20.9336C35.7495 22.1564 35.75 23.8546 35.75 27.25C35.75 30.6454 35.7495 32.3436 34.9404 33.5664C34.5793 34.112 34.112 34.5793 33.5664 34.9404C32.3436 35.7495 30.6454 35.75 27.25 35.75C23.8546 35.75 22.1564 35.7495 20.9336 34.9404C20.388 34.5793 19.9207 34.112 19.5596 33.5664C18.7505 32.3436 18.75 30.6454 18.75 27.25C18.75 23.8546 18.7505 22.1564 19.5596 20.9336C19.9207 20.388 20.388 19.9207 20.9336 19.5596C22.1564 18.7505 23.8546 18.75 27.25 18.75ZM27.25 22.8516C24.8198 22.8517 22.8497 24.8217 22.8496 27.252C22.8496 29.6823 24.8197 31.6523 27.25 31.6523C29.6804 31.6523 31.6504 29.6823 31.6504 27.252C31.6503 24.8217 29.6803 22.8516 27.25 22.8516ZM27.25 24.3408C28.858 24.3408 30.162 25.6439 30.1621 27.252C30.1621 28.8601 28.8581 30.1641 27.25 30.1641C25.642 30.164 24.3389 28.86 24.3389 27.252C24.339 25.644 25.642 24.3409 27.25 24.3408ZM31.6709 21.5469C31.0879 21.5469 30.6152 22.0196 30.6152 22.6025C30.6153 23.1855 31.088 23.6582 31.6709 23.6582C32.2538 23.6581 32.7265 23.1854 32.7266 22.6025C32.7266 22.0196 32.2538 21.5469 31.6709 21.5469Z" fill="#F7F9F2"/>
</svg>
