<svg width="55" height="55" viewBox="0 0 55 55" fill="none" xmlns="http://www.w3.org/2000/svg">
<path opacity="0.1" fill-rule="evenodd" clip-rule="evenodd" d="M27.25 53.75C41.8855 53.75 53.75 41.8855 53.75 27.25C53.75 12.6145 41.8855 0.75 27.25 0.75C12.6145 0.75 0.75 12.6145 0.75 27.25C0.75 41.8855 12.6145 53.75 27.25 53.75Z" stroke="#F7F9F2" stroke-width="1.5"/>
<g clip-path="url(#clip0_2585_801)">
<path d="M27.2521 18.75H27.2479C22.5612 18.75 18.75 22.5622 18.75 27.25C18.75 29.1094 19.3493 30.8328 20.3682 32.2321L19.3089 35.3898L22.5761 34.3454C23.9201 35.2358 25.5234 35.75 27.2521 35.75C31.9388 35.75 35.75 31.9367 35.75 27.25C35.75 22.5633 31.9388 18.75 27.2521 18.75ZM32.1981 30.7531C31.993 31.3321 31.1791 31.8124 30.5299 31.9526C30.0858 32.0472 29.5057 32.1226 27.5528 31.313C25.0549 30.2781 23.4463 27.7398 23.3209 27.5751C23.2008 27.4104 22.3115 26.2311 22.3115 25.0113C22.3115 23.7916 22.9309 23.1976 23.1806 22.9426C23.3857 22.7333 23.7246 22.6377 24.0497 22.6377C24.1549 22.6377 24.2495 22.643 24.3345 22.6472C24.5842 22.6579 24.7096 22.6728 24.8742 23.0669C25.0793 23.561 25.5787 24.7808 25.6382 24.9061C25.6987 25.0315 25.7593 25.2015 25.6743 25.3662C25.5946 25.5362 25.5245 25.6116 25.3991 25.7561C25.2737 25.9006 25.1547 26.0111 25.0294 26.1663C24.9146 26.3012 24.785 26.4457 24.9295 26.6954C25.074 26.9398 25.5734 27.7547 26.3086 28.4092C27.2574 29.2539 28.0267 29.5238 28.3019 29.6385C28.5069 29.7235 28.7513 29.7033 28.9011 29.5439C29.0913 29.3389 29.3261 28.9989 29.5652 28.6642C29.7352 28.4241 29.9498 28.3943 30.1751 28.4793C30.4046 28.559 31.619 29.1593 31.8687 29.2836C32.1184 29.409 32.2831 29.4685 32.3436 29.5737C32.4031 29.6789 32.4031 30.1729 32.1981 30.7531Z" fill="#F7F9F2"/>
</g>
<defs>
<clipPath id="clip0_2585_801">
<rect width="17" height="17" fill="white" transform="translate(18.75 18.75)"/>
</clipPath>
</defs>
</svg>
