<svg width="55" height="55" viewBox="0 0 55 55" fill="none" xmlns="http://www.w3.org/2000/svg">
<path opacity="0.1" fill-rule="evenodd" clip-rule="evenodd" d="M27.25 53.75C41.8855 53.75 53.75 41.8855 53.75 27.25C53.75 12.6145 41.8855 0.75 27.25 0.75C12.6145 0.75 0.75 12.6145 0.75 27.25C0.75 41.8855 12.6145 53.75 27.25 53.75Z" stroke="#F7F9F2" stroke-width="1.5"/>
<path d="M21.1684 21.9032C22.4091 21.9032 23.4149 20.8974 23.4149 19.6567C23.4149 18.416 22.4091 17.4102 21.1684 17.4102C19.9277 17.4102 18.9219 18.416 18.9219 19.6567C18.9219 20.8974 19.9277 21.9032 21.1684 21.9032Z" fill="#F7F9F2"/>
<path d="M23.0405 23.4062H19.2963C19.0896 23.4062 18.9219 23.574 18.9219 23.7807V35.0133C18.9219 35.2199 19.0896 35.3877 19.2963 35.3877H23.0405C23.2472 35.3877 23.4149 35.2199 23.4149 35.0133V23.7807C23.4149 23.574 23.2472 23.4062 23.0405 23.4062Z" fill="#F7F9F2"/>
<path d="M34.1994 22.7798C32.5991 22.2317 30.5975 22.7132 29.3971 23.5766C29.3559 23.4156 29.2091 23.2958 29.0346 23.2958H25.2904C25.0838 23.2958 24.916 23.4635 24.916 23.6702V34.9028C24.916 35.1094 25.0838 35.2772 25.2904 35.2772H29.0346C29.2413 35.2772 29.4091 35.1094 29.4091 34.9028V26.8303C30.0141 26.3091 30.7937 26.1428 31.4317 26.4139C32.0502 26.6753 32.4044 27.3133 32.4044 28.1632V34.9028C32.4044 35.1094 32.5722 35.2772 32.7788 35.2772H36.523C36.7297 35.2772 36.8974 35.1094 36.8974 34.9028V27.4091C36.8548 24.3322 35.4073 23.1932 34.1994 22.7798Z" fill="#F7F9F2"/>
</svg>
