<svg width="210" height="69" viewBox="0 0 210 69" fill="none" xmlns="http://www.w3.org/2000/svg">
<g style="mix-blend-mode:luminosity">
<path d="M72.8824 49.9883V29.0654H73.303L90.4868 49.9883H95.8943V19.2627H89.8859V40.1329H89.4654L72.2816 19.2627H66.8741V49.9883H72.8824ZM112.898 50.4626C120.829 50.4626 125.696 45.9302 125.696 38.341C125.696 30.8046 120.829 26.2194 112.898 26.2194C105.027 26.2194 100.1 30.8046 100.1 38.341C100.16 45.9302 104.967 50.4626 112.898 50.4626ZM112.898 46.0356C108.692 46.0356 106.289 43.2423 106.289 38.341C106.289 33.4924 108.692 30.6464 112.898 30.6464C117.104 30.6464 119.507 33.4924 119.507 38.341C119.507 43.2423 117.104 46.0356 112.898 46.0356ZM131.163 21.0019V26.8519H126.957V31.0681H131.163V43.7694C131.163 48.3018 133.566 50.0937 139.695 50.0937C140.836 50.0937 141.978 49.9883 142.879 49.8302V45.7194C142.158 45.7721 141.678 45.8248 140.836 45.8248C138.313 45.8248 137.171 44.8234 137.171 42.5045V31.0681H142.879V26.8519H137.171V21.0019H131.163ZM146.484 49.9883H152.493V26.6938H146.484V49.9883ZM149.488 22.8465C151.471 22.8465 153.093 21.4235 153.093 19.6843C153.093 17.8924 151.471 16.4695 149.488 16.4695C147.506 16.4695 145.883 17.8924 145.883 19.6843C145.883 21.4235 147.506 22.8465 149.488 22.8465ZM168.955 50.4626C176.886 50.4626 181.753 45.9302 181.753 38.341C181.753 30.8046 176.886 26.2194 168.955 26.2194C161.085 26.2194 156.158 30.8046 156.158 38.341C156.158 45.9302 160.964 50.4626 168.955 50.4626ZM168.955 46.0356C164.75 46.0356 162.346 43.2423 162.346 38.341C162.346 33.4924 164.75 30.6464 168.955 30.6464C173.101 30.6464 175.565 33.4924 175.565 38.341C175.505 43.2423 173.101 46.0356 168.955 46.0356ZM185.298 49.9883H191.306V36.4437C191.306 33.0181 193.59 30.8573 197.134 30.8573C200.8 30.8573 202.482 32.6491 202.482 36.1802V49.9883H208.49V34.9154C208.49 29.3289 205.246 26.2194 199.358 26.2194C195.392 26.2194 192.748 27.8005 191.487 30.4356H191.066V26.6938H185.238C185.298 26.6938 185.298 49.9883 185.298 49.9883Z" fill="black"/>
<path fill-rule="evenodd" clip-rule="evenodd" d="M9.26455 17.2961C11.0133 18.5465 11.6458 18.4478 14.92 18.2503L45.7646 16.6052C46.4344 16.6052 45.8763 16.0129 45.653 15.9471L40.5184 12.6896C39.5511 12.0316 38.2116 11.2419 35.7187 11.4393L5.87871 13.3806C4.79971 13.4793 4.57646 13.9729 5.02295 14.3348L9.26455 17.2961ZM11.1249 23.6465V52.3385C11.1249 53.8849 11.9807 54.4443 13.9526 54.3456L47.8482 52.6017C49.8202 52.503 50.0434 51.4501 50.0434 50.1997V21.7052C50.0434 20.4549 49.4853 19.7639 48.2947 19.8626L12.8736 21.7052C11.5714 21.8039 11.1249 22.3962 11.1249 23.6465ZM44.574 25.193C44.7972 26.0485 44.574 26.9369 43.6066 27.0356L41.9695 27.3317V48.5216C40.5556 49.1797 39.2534 49.5746 38.1372 49.5746C36.3885 49.5746 35.942 49.081 34.6397 47.6332L23.9613 32.7937V47.1397L27.3472 47.7978C27.3472 47.7978 27.3472 49.5417 24.631 49.5417L17.1152 49.9365C16.892 49.5417 17.1152 48.5874 17.8594 48.39L19.8313 47.8965V28.944L17.1152 28.7466C16.892 27.8911 17.4501 26.6408 18.9756 26.542L27.0495 26.0485L38.1744 41.0525V27.7924L35.3467 27.4963C35.1234 26.4433 36.0164 25.6536 37.0954 25.5549L44.574 25.193ZM3.38584 10.7483L34.4537 8.74121C38.2488 8.44508 39.2534 8.6425 41.6347 10.189L51.5317 16.3419C53.1688 17.3949 53.7269 17.691 53.7269 18.8426V52.6346C53.7269 54.7404 52.8712 55.9907 49.8202 56.1882L13.7666 58.1295C11.4598 58.2282 10.3808 57.9321 9.19013 56.583L1.86035 48.1926C0.558105 46.6461 0 45.4945 0 44.1455V14.1045C0 12.3606 0.892968 10.9457 3.38584 10.7483Z" fill="black"/>
</g>
</svg>
