<svg width="50" height="50" viewBox="0 0 50 50" fill="none" xmlns="http://www.w3.org/2000/svg">
<circle cx="25" cy="25" r="25" fill="#00344A"/>
<path fill-rule="evenodd" clip-rule="evenodd" d="M24.7069 19.3396C24.7924 19.2415 24.8964 19.1612 25.0129 19.1033C25.1295 19.0454 25.2563 19.0111 25.3861 19.0023C25.516 18.9935 25.6463 19.0103 25.7696 19.0519C25.8929 19.0935 26.0068 19.1589 26.1048 19.2446L32.1611 24.5247C32.2675 24.6176 32.3528 24.7322 32.4113 24.8609C32.4698 24.9895 32.5 25.1292 32.5 25.2705C32.5 25.4118 32.4698 25.5515 32.4113 25.6801C32.3528 25.8087 32.2675 25.9234 32.1611 26.0163L26.1048 31.2964C26.0073 31.3849 25.8932 31.4532 25.769 31.497C25.6449 31.5409 25.5132 31.5596 25.3817 31.552C25.2503 31.5444 25.1217 31.5106 25.0034 31.4526C24.8852 31.3947 24.7797 31.3138 24.6931 31.2145C24.6065 31.1153 24.5406 30.9998 24.4992 30.8748C24.4578 30.7498 24.4418 30.6178 24.4521 30.4865C24.4623 30.3552 24.4987 30.2273 24.559 30.1103C24.6193 29.9932 24.7023 29.8893 24.8032 29.8048L28.8689 26.2605H16.99C16.7274 26.2605 16.4756 26.1562 16.29 25.9705C16.1043 25.7849 16 25.5331 16 25.2705C16 25.0079 16.1043 24.7561 16.29 24.5704C16.4756 24.3848 16.7274 24.2805 16.99 24.2805H28.8676L24.8019 20.7362C24.6042 20.5636 24.4831 20.3195 24.4652 20.0576C24.4474 19.7957 24.5343 19.5374 24.7069 19.3396Z" fill="white"/>
</svg>
