<svg width="50" height="50" viewBox="0 0 50 50" fill="none" xmlns="http://www.w3.org/2000/svg">
<circle cx="25" cy="25" r="25" transform="matrix(-1 0 0 1 50 0)" fill="#00344A"/>
<path fill-rule="evenodd" clip-rule="evenodd" d="M25.2931 19.3396C25.2076 19.2415 25.1036 19.1612 24.9871 19.1033C24.8705 19.0454 24.7437 19.0111 24.6139 19.0023C24.484 18.9935 24.3537 19.0103 24.2304 19.0519C24.1071 19.0935 23.9932 19.1589 23.8952 19.2446L17.8389 24.5247C17.7325 24.6176 17.6472 24.7322 17.5887 24.8609C17.5303 24.9895 17.5 25.1292 17.5 25.2705C17.5 25.4118 17.5303 25.5515 17.5887 25.6801C17.6472 25.8087 17.7325 25.9234 17.8389 26.0163L23.8952 31.2964C23.9927 31.3849 24.1068 31.4532 24.231 31.497C24.3551 31.5409 24.4868 31.5596 24.6183 31.552C24.7497 31.5444 24.8783 31.5106 24.9966 31.4526C25.1148 31.3947 25.2203 31.3138 25.3069 31.2145C25.3935 31.1153 25.4594 30.9998 25.5008 30.8748C25.5422 30.7498 25.5582 30.6178 25.548 30.4865C25.5377 30.3552 25.5014 30.2273 25.4411 30.1103C25.3807 29.9932 25.2977 29.8893 25.1968 29.8048L21.1311 26.2605H33.01C33.2726 26.2605 33.5244 26.1562 33.71 25.9705C33.8957 25.7849 34 25.5331 34 25.2705C34 25.0079 33.8957 24.7561 33.71 24.5704C33.5244 24.3848 33.2726 24.2805 33.01 24.2805H21.1324L25.1981 20.7362C25.3958 20.5636 25.5169 20.3195 25.5348 20.0576C25.5526 19.7957 25.4657 19.5374 25.2931 19.3396Z" fill="white"/>
</svg>
