<svg width="54" height="54" viewBox="0 0 54 54" fill="none" xmlns="http://www.w3.org/2000/svg">
<circle cx="27" cy="27" r="26.75" stroke="url(#paint0_linear_2586_848)" stroke-width="0.5"/>
<circle cx="27" cy="27" r="20" fill="#00161F"/>
<path d="M24.334 20.668H23.0007C22.0802 20.668 21.334 21.4142 21.334 22.3346V31.668C21.334 32.5884 22.0802 33.3346 23.0007 33.3346H24.334C25.2545 33.3346 26.0007 32.5884 26.0007 31.668V22.3346C26.0007 21.4142 25.2545 20.668 24.334 20.668Z" fill="white"/>
<path d="M31 20.668H29.6667C28.7462 20.668 28 21.4142 28 22.3346V31.668C28 32.5884 28.7462 33.3346 29.6667 33.3346H31C31.9205 33.3346 32.6667 32.5884 32.6667 31.668V22.3346C32.6667 21.4142 31.9205 20.668 31 20.668Z" fill="white"/>
<defs>
<linearGradient id="paint0_linear_2586_848" x1="6" y1="2" x2="45.5" y2="46" gradientUnits="userSpaceOnUse">
<stop/>
<stop offset="1" stop-color="#CBCBCB"/>
</linearGradient>
</defs>
</svg>
