<svg width="54" height="54" viewBox="0 0 54 54" fill="none" xmlns="http://www.w3.org/2000/svg">
<circle cx="27" cy="27" r="26.75" stroke="url(#paint0_linear_2586_849)" stroke-width="0.5"/>
<circle cx="27" cy="27" r="20" fill="#00161F"/>
<path fill-rule="evenodd" clip-rule="evenodd" d="M32.7351 26.6366L21.9748 20.424C21.8764 20.3667 21.7647 20.3363 21.6508 20.3359H21.6489C21.535 20.3364 21.4232 20.3668 21.3247 20.4241C21.2255 20.4806 21.1431 20.5626 21.0861 20.6615C21.029 20.7604 20.9993 20.8727 21 20.9868V33.4119C20.9996 33.5261 21.0293 33.6385 21.0862 33.7375C21.1432 33.8366 21.2253 33.9188 21.3242 33.976C21.4231 34.0331 21.5354 34.0631 21.6497 34.0628C21.7639 34.0626 21.8761 34.0322 21.9748 33.9747L32.7351 27.7621C32.8339 27.7051 32.9159 27.623 32.9729 27.5243C33.03 27.4255 33.06 27.3134 33.06 27.1993C33.06 27.0853 33.03 26.9732 32.9729 26.8744C32.9159 26.7756 32.8339 26.6936 32.7351 26.6366Z" fill="white"/>
<defs>
<linearGradient id="paint0_linear_2586_849" x1="6" y1="2" x2="45.5" y2="46" gradientUnits="userSpaceOnUse">
<stop/>
<stop offset="1" stop-color="#CBCBCB"/>
</linearGradient>
</defs>
</svg>
